<?xml version="1.0" encoding="UTF-8"?>
<!-- Generator: visioncortex VTracer 0.6.3 -->
<svg version="1.1" xmlns="http://www.w3.org/2000/svg" width="500" height="500">
<path d="M0 0 C1.46 -0.09 2.92 -0.13 4.38 -0.13 C5.73 -0.14 5.73 -0.14 7.11 -0.14 C8.1 -0.14 9.09 -0.14 10.12 -0.14 C11.69 -0.14 11.69 -0.14 13.3 -0.15 C16.84 -0.16 20.39 -0.16 23.93 -0.16 C26.46 -0.17 28.99 -0.17 31.53 -0.18 C38.42 -0.19 45.31 -0.2 52.2 -0.2 C56.51 -0.2 60.81 -0.21 65.11 -0.21 C77.03 -0.22 88.94 -0.23 100.85 -0.24 C101.62 -0.24 102.38 -0.24 103.16 -0.24 C104.31 -0.24 104.31 -0.24 105.48 -0.24 C107.03 -0.24 108.58 -0.24 110.13 -0.24 C110.89 -0.24 111.66 -0.24 112.45 -0.24 C124.9 -0.24 137.35 -0.26 149.81 -0.29 C162.59 -0.31 175.37 -0.32 188.15 -0.32 C195.32 -0.32 202.5 -0.33 209.68 -0.35 C216.43 -0.36 223.18 -0.37 229.92 -0.36 C232.4 -0.36 234.88 -0.36 237.36 -0.37 C240.74 -0.38 244.12 -0.38 247.5 -0.37 C248.49 -0.38 249.47 -0.38 250.49 -0.39 C253.03 -0.37 255.48 -0.31 258 0 C259.17 0.48 260.33 0.95 261.53 1.44 C263.66 2.78 265.69 4.08 267.62 5.69 C268.17 6.12 268.72 6.56 269.29 7.01 C271 9 271 9 272.02 10.57 C273.2 12.68 274.17 14.72 275 17 C275.55 20.58 275.54 24.09 275.51 27.7 C275.52 29.29 275.52 29.29 275.53 30.9 C275.54 34.42 275.53 37.94 275.52 41.46 C275.52 43.99 275.53 46.52 275.54 49.05 C275.56 55.21 275.55 61.36 275.54 67.51 C275.53 72.51 275.53 77.51 275.54 82.51 C275.54 83.22 275.54 83.94 275.54 84.67 C275.54 86.12 275.54 87.57 275.54 89.01 C275.55 102.58 275.54 116.15 275.52 129.71 C275.5 141.34 275.5 152.97 275.52 164.61 C275.54 178.13 275.55 191.64 275.54 205.16 C275.54 206.6 275.54 208.05 275.54 209.49 C275.53 210.55 275.53 210.55 275.53 211.64 C275.53 216.63 275.54 221.63 275.55 226.62 C275.56 233.34 275.55 240.07 275.53 246.79 C275.52 249.26 275.52 251.72 275.53 254.19 C275.54 257.56 275.53 260.93 275.51 264.3 C275.52 265.27 275.53 266.25 275.53 267.25 C275.5 269.89 275.4 272.39 275 275 C274.19 277.25 273.24 279.27 272.08 281.36 C271 283 271 283 268.75 285.75 C266 288 266 288 264.36 289.08 C262.27 290.24 260.25 291.19 258 292 C254.42 292.55 250.91 292.54 247.3 292.51 C245.71 292.52 245.71 292.52 244.1 292.53 C240.58 292.54 237.06 292.53 233.54 292.52 C231.01 292.52 228.48 292.53 225.95 292.54 C219.79 292.56 213.64 292.55 207.49 292.54 C202.49 292.53 197.49 292.53 192.49 292.54 C191.78 292.54 191.06 292.54 190.33 292.54 C188.88 292.54 187.43 292.54 185.99 292.54 C172.42 292.55 158.85 292.54 145.29 292.52 C133.66 292.5 122.03 292.5 110.39 292.52 C96.87 292.54 83.36 292.55 69.84 292.54 C68.4 292.54 66.95 292.54 65.51 292.54 C64.8 292.53 64.09 292.53 63.36 292.53 C58.37 292.53 53.37 292.54 48.38 292.55 C41.66 292.56 34.93 292.55 28.21 292.53 C25.74 292.52 23.28 292.52 20.81 292.53 C17.44 292.54 14.07 292.53 10.7 292.51 C9.24 292.52 9.24 292.52 7.75 292.53 C5.11 292.5 2.61 292.4 0 292 C-2.25 291.19 -4.27 290.24 -6.36 289.08 C-8 288 -8 288 -10.75 285.75 C-13 283 -13 283 -14.08 281.36 C-15.24 279.27 -16.19 277.25 -17 275 C-17.54 271.42 -17.54 267.9 -17.5 264.28 C-17.51 262.7 -17.51 262.7 -17.52 261.08 C-17.53 257.56 -17.52 254.03 -17.5 250.5 C-17.51 247.97 -17.51 245.44 -17.52 242.9 C-17.53 236.74 -17.52 230.59 -17.51 224.43 C-17.49 217.25 -17.5 210.08 -17.5 202.9 C-17.51 190.1 -17.49 177.3 -17.47 164.5 C-17.44 152.08 -17.44 139.66 -17.45 127.24 C-17.46 113.71 -17.46 100.18 -17.44 86.65 C-17.44 85.21 -17.44 83.76 -17.44 82.32 C-17.44 81.26 -17.44 81.26 -17.44 80.17 C-17.43 75.17 -17.44 70.17 -17.44 65.17 C-17.44 58.44 -17.43 51.71 -17.41 44.98 C-17.41 42.51 -17.41 40.04 -17.41 37.57 C-17.42 34.2 -17.4 30.83 -17.39 27.46 C-17.4 25.99 -17.4 25.99 -17.41 24.49 C-17.38 21.96 -17.32 19.51 -17 17 C-15.55 13.51 -15.55 13.51 -14 11 C-13.41 9.73 -13.41 9.73 -12.81 8.44 C-12.21 7.63 -11.62 6.83 -11 6 C-8.45 4.11 -5.81 2.47 -3 1 C-2.01 0.67 -1.02 0.34 0 0 Z " fill="#00BE61" transform="translate(121,104)"/>
<path d="M0 0 C10.83 -0.06 21.66 -0.12 32.81 -0.19 C36.21 -0.21 39.61 -0.24 43.11 -0.27 C45.83 -0.28 48.55 -0.29 51.27 -0.29 C51.96 -0.3 52.65 -0.31 53.37 -0.32 C57.92 -0.37 62.45 -0.33 67 0 C70.78 0.73 74.38 1.7 78 3 C80.12 3.82 82.1 4.64 84.1 5.73 C86.28 7.18 88.19 8.73 90.12 10.5 C92.11 12.57 92.11 12.57 94 15 C96.27 18.89 98.23 22.86 100 27 C100.5 28.49 100.5 28.49 101 30 C101.23 33.37 101.19 36.75 101.19 40.12 C101.2 41.04 101.21 41.95 101.22 42.89 C101.23 46.45 101.14 49.92 100.67 53.45 C100.23 55.7 99.71 57.83 99 60 C97.28 63.55 95.29 66.73 93.14 70.04 C91 73 91 73 89.2 75.02 C87.53 76.53 85.9 77.79 84 79 C81.4 80.52 78.79 81.85 76 83 C75.17 83.34 74.35 83.69 73.49 84.04 C72.34 84.36 71.19 84.67 70 85 C66.67 85.27 63.35 85.23 60.01 85.2 C59.17 85.19 58.33 85.19 57.46 85.19 C54.35 85.18 51.24 85.15 48.12 85.12 C41.15 85.08 34.18 85.04 27 85 C27 100.84 27 116.68 27 133 C18.09 133 9.18 133 0 133 C0 89.11 0 45.22 0 0 Z " fill="#003C1B" transform="translate(146,191)"/>
<path d="M0 0 C3.29 0.11 6.36 0.51 9.59 1.19 C12.79 2.13 15.86 3.2 18.96 4.43 C19.7 4.7 20.43 4.98 21.19 5.27 C23.15 6.11 23.15 6.11 25 7.12 C28.46 9.42 31.54 11.97 34.56 14.81 C36.96 17.43 36.96 17.43 39.05 20.26 C41.42 24.07 43.35 27.93 45.05 32.09 C45.9 34.8 45.9 34.8 46.52 37.77 C47.44 45.44 47.55 53.12 47.17 60.84 C46.88 64.45 46.25 67.72 45.34 71.24 C44.28 74.34 43.11 77.14 41.57 80.03 C40.14 82.27 38.62 84.34 36.96 86.43 C36.51 87.05 36.06 87.67 35.59 88.32 C34.15 90.19 32.7 91.82 30.96 93.43 C27.17 96.1 23.18 98.3 19.04 100.39 C16.27 101.66 13.4 102.62 10.52 103.61 C7.77 104.24 5.18 104.47 2.35 104.65 C-2.99 104.82 -8.24 104.65 -13.54 104 C-16.84 103.35 -19.88 102.55 -23.04 101.43 C-26.29 99.92 -29.29 98.28 -32.32 96.37 C-34.84 94.57 -37.15 92.74 -39.41 90.61 C-41.95 87.85 -44.21 84.99 -46.29 81.86 C-47.87 79.01 -49.13 76.2 -50.3 73.16 C-51.5 69.27 -52.46 65.44 -53.04 61.43 C-53.64 55.56 -53.72 49.74 -53.31 43.86 C-52.97 40.8 -52.42 37.87 -51.65 34.89 C-50.66 31.6 -49.46 28.57 -48.04 25.43 C-46.28 22.31 -44.44 19.55 -42.21 16.76 C-40.09 14.48 -37.95 12.46 -35.54 10.49 C-32.87 8.58 -30.15 6.78 -27.29 5.18 C-23.96 3.66 -20.57 2.62 -17.04 1.68 C-11.37 0.49 -5.79 -0.03 0 0 Z " fill="#013C1C" transform="translate(314.0390625,222.57421875)"/>
<path d="M0 0 C1.32 0 2.64 0 4 0 C4.02 16.52 4.04 33.05 4.05 49.57 C4.06 57.24 4.06 64.92 4.08 72.59 C4.09 79.27 4.09 85.96 4.09 92.64 C4.1 96.19 4.1 99.73 4.11 103.27 C4.11 107.22 4.11 111.17 4.11 115.11 C4.12 116.3 4.12 117.48 4.12 118.69 C4.12 119.76 4.12 120.83 4.12 121.94 C4.12 122.87 4.12 123.81 4.12 124.77 C4.08 125.51 4.04 126.24 4 127 C3.5 127.99 3.5 127.99 3 129 C4.32 129 5.64 129 7 129 C7 86.43 7 43.86 7 0 C27.13 0 47.26 0 68 0 C78 3 78 3 80.69 4.32 C81.62 4.93 81.62 4.93 82.56 5.56 C83.2 5.98 83.84 6.39 84.5 6.82 C85.24 7.4 85.24 7.4 86 8 C86.5 8.99 86.5 8.99 87 10 C85.68 10 84.36 10 83 10 C83 10.99 83 11.98 83 13 C81.68 13 80.36 13 79 13 C79 13.66 79 14.32 79 15 C77.35 15 75.7 15 74 15 C74.33 14.34 74.66 13.68 75 13 C75.66 13 76.32 13 77 13 C77 12.34 77 11.68 77 11 C75.58 11.31 75.58 11.31 74.12 11.62 C73.09 12.08 72.06 12.53 71 13 C70.53 13.89 70.05 14.77 69.56 15.69 C69.28 17.33 69.28 17.33 69 19 C69.3 22.77 69.3 22.77 70 26 C70.66 25.34 71.32 24.68 72 24 C71.5 22.51 71.5 22.51 71 21 C71.66 21 72.32 21 73 21 C73 20.34 73 19.68 73 19 C74.32 19 75.64 19 77 19 C77 20.32 77 21.64 77 23 C76.01 23 75.02 23 74 23 C74.99 26.47 74.99 26.47 76 30 C74.51 29.5 74.51 29.5 73 29 C73 31.31 73 33.62 73 36 C72.67 36 72.34 36 72 36 C71.71 35.09 71.42 34.19 71.12 33.25 C70.75 32.18 70.38 31.1 70 30 C69.77 29.28 69.55 28.56 69.31 27.81 C68.88 27.21 68.45 26.62 68 26 C65.71 24.76 63.45 23.91 61 23 C61 22.01 61 21.02 61 20 C57.17 19.36 53.51 18.93 49.62 18.94 C47.83 18.97 47.83 18.97 46 19 C45.67 19 45.34 19 45 19 C45 19.33 45 19.66 45 20 C38.4 20 31.8 20 25 20 C25 19.34 25 18.68 25 18 C23.02 18.66 21.04 19.32 19 20 C18.01 18.35 17.02 16.7 16 15 C16.66 18.3 17.32 21.6 18 25 C18.33 24.34 18.66 23.68 19 23 C19.66 23 20.32 23 21 23 C21 22.01 21 21.02 21 20 C21.99 20.33 22.98 20.66 24 21 C23.34 21 22.68 21 22 21 C22.33 21.66 22.66 22.32 23 23 C23.09 25.18 23.11 27.36 23.1 29.54 C23.09 30.84 23.09 32.14 23.09 33.48 C23.08 34.86 23.07 36.24 23.06 37.62 C23.06 39.01 23.05 40.4 23.05 41.79 C23.04 45.19 23.02 48.6 23 52 C21.02 52.5 21.02 52.5 19 53 C19 52.34 19 51.68 19 51 C18.01 51.5 18.01 51.5 17 52 C16.79 52.56 16.59 53.11 16.38 53.69 C16.25 54.45 16.13 55.21 16 56 C16.02 57.03 16.04 58.06 16.06 59.12 C16.04 60.07 16.02 61.02 16 62 C15.34 62.66 14.68 63.32 14 64 C13.69 66.57 13.49 69.05 13.38 71.62 C13.32 72.68 13.32 72.68 13.26 73.77 C13.16 75.51 13.08 77.25 13 79 C13.66 79 14.32 79 15 79 C15 80.98 15 82.96 15 85 C15.66 85 16.32 85 17 85 C17 83.02 17 81.04 17 79 C17.66 79 18.32 79 19 79 C20.38 80.63 21.72 82.29 23 84 C22.34 84 21.68 84 21 84 C21.02 85.13 21.04 86.27 21.06 87.44 C21.04 88.61 21.02 89.79 21 91 C20.67 91.33 20.34 91.66 20 92 C19.8 94.56 19.67 97.09 19.58 99.65 C19.55 100.42 19.52 101.19 19.49 101.98 C19.44 103.61 19.38 105.23 19.33 106.86 C19.25 109.36 19.15 111.85 19.04 114.34 C18.99 115.92 18.94 117.51 18.89 119.09 C18.86 119.83 18.82 120.58 18.79 121.35 C18.69 123.7 18.69 123.7 19 127 C20.49 128.49 20.49 128.49 22 130 C14.74 130 7.48 130 0 130 C0 87.1 0 44.2 0 0 Z " fill="#01391B" transform="translate(147,193)"/>
<path d="M0 0 C2.72 -0.27 5.35 -0.31 8.08 -0.27 C11 0 11 0 13.51 0.58 C15.81 1.44 15.81 1.44 17.99 2.54 C18.65 3.02 19.32 3.5 20 4 C21.85 6.09 23.34 8.21 24.81 10.59 C25.62 12.24 26.39 13.91 27.13 15.59 C28 19 28 19 28.25 21.44 C28.64 28.28 28.71 35.18 28 42 C27.53 44.16 27.53 44.16 26.94 46 C25.5 49.12 25.5 49.12 23.85 51.81 C22 54 22 54 20 55.79 C17.94 57.19 17.94 57.19 15.87 58.24 C14.45 58.82 13.01 59.33 11.56 59.81 C10.72 59.87 9.87 59.94 9 60 C8.34 60.06 7.69 60.12 7.01 60.19 C4.61 60.32 2.39 60.27 0 60 C-2.37 59.35 -2.37 59.35 -4.69 58.44 C-6.93 57.31 -6.93 57.31 -9 56 C-10.79 54.56 -10.79 54.56 -12.38 52.94 C-13.78 51.08 -13.78 51.08 -15 49 C-16.03 46.7 -16.03 46.7 -16.88 44.12 C-17.67 40.7 -18.09 37.36 -18.28 33.86 C-18.42 29.56 -18.37 25.29 -18 21 C-17.5 17.93 -17.5 17.93 -16.81 15.38 C-15.99 13.13 -15.04 11.07 -13.93 8.95 C-12.75 7.06 -12.75 7.06 -11.46 5.4 C-10.74 4.71 -10.74 4.71 -10 4 C-8.23 2.94 -8.23 2.94 -6.38 2.12 C-4.25 1.42 -2.12 0.71 0 0 Z " fill="#02BC62" transform="translate(306,245)"/>
<path d="M0 0 C4.74 -0.06 9.49 -0.12 14.38 -0.19 C16.59 -0.23 16.59 -0.23 18.85 -0.27 C22.58 -0.29 26.27 -0.25 30 0 C32.8 0.55 35.41 1.25 38.12 2.16 C38.74 2.43 39.36 2.71 40 3 C40.82 3.66 41.65 4.32 42.5 5 C43.72 6.63 44.87 8.31 46 10 C46.62 12.19 46.62 12.19 47 15 C47.19 17.81 47.27 20.23 47 23 C46.49 25.41 45.83 27.64 44.98 29.95 C44.65 30.63 44.33 31.3 44 32 C43.24 32.97 42.47 33.94 41.69 34.94 C40.8 35.62 39.91 36.3 39 37 C36.32 38.12 36.32 38.12 33 39 C30.36 39.16 27.83 39.23 25.2 39.2 C24.55 39.19 23.91 39.19 23.25 39.19 C20.87 39.18 18.5 39.15 16.12 39.12 C10.8 39.08 5.48 39.04 0 39 C0 26.13 0 13.26 0 0 Z " fill="#03BB62" transform="translate(173,214)"/>
<path d="M0 0 C2.38 2.19 2.38 2.19 5 5 C5.38 5.67 5.76 6.34 6.15 7.03 C6.43 8.01 6.71 8.99 7 10 C7.29 13.45 7.28 16.88 7.27 20.34 C7.27 21.39 7.28 22.45 7.28 23.53 C7.29 27.06 7.29 30.59 7.29 34.12 C7.3 36.65 7.3 39.18 7.31 41.71 C7.33 47.87 7.33 54.04 7.33 60.2 C7.34 65.21 7.34 70.22 7.35 75.23 C7.36 89.43 7.37 103.64 7.37 117.85 C7.37 118.61 7.37 119.38 7.37 120.17 C7.37 120.93 7.37 121.7 7.37 122.49 C7.37 134.91 7.39 147.34 7.42 159.76 C7.45 172.52 7.46 185.28 7.46 198.04 C7.46 205.2 7.46 212.36 7.48 219.53 C7.5 226.26 7.5 233 7.49 239.74 C7.49 242.21 7.49 244.68 7.5 247.15 C7.52 250.53 7.51 253.9 7.49 257.28 C7.5 258.25 7.52 259.23 7.53 260.24 C7.5 262.88 7.4 265.38 7 268 C6.19 270.25 5.24 272.27 4.08 274.36 C3 276 3 276 0.75 278.75 C-2 281 -2 281 -3.64 282.08 C-5.73 283.24 -7.75 284.19 -10 285 C-13.58 285.55 -17.09 285.54 -20.7 285.51 C-22.29 285.52 -22.29 285.52 -23.9 285.53 C-27.42 285.54 -30.94 285.53 -34.46 285.52 C-36.99 285.52 -39.52 285.53 -42.05 285.54 C-48.21 285.56 -54.36 285.55 -60.51 285.54 C-65.51 285.53 -70.51 285.53 -75.51 285.54 C-76.22 285.54 -76.94 285.54 -77.67 285.54 C-79.12 285.54 -80.57 285.54 -82.01 285.54 C-95.58 285.55 -109.15 285.54 -122.71 285.52 C-134.34 285.5 -145.97 285.5 -157.61 285.52 C-171.13 285.54 -184.64 285.55 -198.16 285.54 C-199.6 285.54 -201.05 285.54 -202.49 285.54 C-203.2 285.53 -203.91 285.53 -204.64 285.53 C-209.63 285.53 -214.63 285.54 -219.62 285.55 C-226.34 285.56 -233.07 285.55 -239.79 285.53 C-242.26 285.52 -244.72 285.52 -247.19 285.53 C-250.56 285.54 -253.93 285.53 -257.3 285.51 C-258.76 285.52 -258.76 285.52 -260.25 285.53 C-262.89 285.5 -265.39 285.4 -268 285 C-270.25 284.2 -272.25 283.26 -274.34 282.11 C-276 281 -276 281 -278.94 278.44 C-279.62 277.63 -280.3 276.83 -281 276 C-281.5 274.51 -281.5 274.51 -282 273 C-278.04 273.66 -274.08 274.32 -270 275 C-270 275.66 -270 276.32 -270 277 C-269.01 277 -268.02 277 -267 277 C-266.67 277.66 -266.34 278.32 -266 279 C-264.35 278.67 -262.7 278.34 -261 278 C-261.66 278.99 -262.32 279.98 -263 281 C-263.66 281 -264.32 281 -265 281 C-265 281.99 -265 282.98 -265 284 C-233.08 283.92 -201.15 283.83 -169.23 283.72 C-165.46 283.71 -161.69 283.69 -157.93 283.68 C-156.8 283.68 -156.8 283.68 -155.65 283.68 C-143.5 283.64 -131.35 283.6 -119.2 283.57 C-106.74 283.54 -94.27 283.5 -81.81 283.46 C-74.12 283.43 -66.42 283.41 -58.73 283.39 C-52.83 283.38 -46.94 283.36 -41.05 283.33 C-38.62 283.32 -36.2 283.32 -33.78 283.32 C-30.48 283.31 -27.19 283.3 -23.89 283.28 C-22.44 283.28 -22.44 283.28 -20.96 283.28 C-20.08 283.28 -19.2 283.27 -18.29 283.26 C-17.53 283.26 -16.77 283.26 -15.98 283.25 C-15.33 283.17 -14.67 283.09 -14 283 C-13.01 282.34 -12.02 281.68 -11 281 C-8.31 280.88 -8.31 280.88 -6 281 C-6 280.34 -6 279.68 -6 279 C-4.35 278.67 -2.7 278.34 -1 278 C-0.67 275.69 -0.34 273.38 0 271 C0.33 271 0.66 271 1 271 C1.33 269.35 1.66 267.7 2 266 C2.99 265.67 3.98 265.34 5 265 C5 182.5 5 100 5 15 C4.34 15 3.68 15 3 15 C2.34 15.99 1.68 16.98 1 18 C0.67 17.01 0.34 16.02 0 15 C0.33 14.34 0.66 13.68 1 13 C-0.32 13.33 -1.64 13.66 -3 14 C-3 13.01 -3 12.02 -3 11 C-1.68 11 -0.36 11 1 11 C0.69 10.42 0.38 9.84 0.06 9.25 C-1 7 -1 7 -1.75 4.94 C-1.83 4.3 -1.92 3.66 -2 3 C-1.34 2.01 -0.68 1.02 0 0 Z " fill="#22B56F" transform="translate(389,111)"/>
<path d="M0 0 C3.45 -0.29 6.89 -0.27 10.36 -0.26 C11.41 -0.26 12.46 -0.27 13.55 -0.27 C17.08 -0.28 20.62 -0.28 24.16 -0.27 C26.69 -0.28 29.22 -0.28 31.75 -0.29 C37.92 -0.3 44.09 -0.3 50.26 -0.3 C55.28 -0.3 60.29 -0.3 65.3 -0.31 C66.02 -0.31 66.73 -0.31 67.47 -0.31 C68.92 -0.31 70.37 -0.31 71.82 -0.31 C85.41 -0.32 99.01 -0.32 112.6 -0.31 C125.04 -0.31 137.48 -0.32 149.91 -0.34 C162.69 -0.36 175.46 -0.37 188.23 -0.36 C195.4 -0.36 202.57 -0.36 209.74 -0.38 C216.48 -0.39 223.22 -0.39 229.96 -0.38 C232.44 -0.37 234.91 -0.38 237.39 -0.38 C240.77 -0.39 244.14 -0.39 247.52 -0.37 C248.5 -0.38 249.48 -0.39 250.5 -0.4 C253.03 -0.38 255.48 -0.31 258 0 C259.74 0.69 259.74 0.69 261.51 1.39 C264 3 264 3 266.38 5.19 C267.18 6.08 267.18 6.08 268 7 C266.02 6.67 264.04 6.34 262 6 C262 6.66 262 7.32 262 8 C260.02 8.13 258.03 8.25 256.05 8.27 C255.03 8.13 255.03 8.13 254 8 C252.76 7.01 252.76 7.01 251.5 6 C251 5.34 250.51 4.68 250 4 C251.32 3.67 252.64 3.34 254 3 C254 2.34 254 1.68 254 1 C221.84 1.06 189.67 1.13 157.51 1.23 C153.72 1.24 149.92 1.25 146.13 1.26 C144.99 1.27 144.99 1.27 143.84 1.27 C131.6 1.3 119.35 1.33 107.11 1.35 C94.56 1.37 82 1.41 69.44 1.45 C61.69 1.48 53.94 1.49 46.19 1.5 C40.25 1.51 34.31 1.53 28.37 1.55 C25.93 1.56 23.49 1.57 21.05 1.57 C17.73 1.56 14.41 1.58 11.09 1.6 C10.11 1.6 9.14 1.59 8.14 1.59 C6.8 1.6 6.8 1.6 5.44 1.62 C4.68 1.62 3.91 1.62 3.12 1.62 C2.42 1.75 1.72 1.87 1 2 C-0.36 2.97 -1.69 3.97 -3 5 C-6.25 5.69 -6.25 5.69 -9 6 C-7.31 4.12 -7.31 4.12 -5 2 C-4.34 1.63 -3.68 1.26 -3 0.88 C-2.01 0.59 -1.02 0.3 0 0 Z " fill="#23B46C" transform="translate(121,104)"/>
<path d="M0 0 C0.66 0.33 1.32 0.66 2 1 C1.01 3.31 0.02 5.62 -1 8 C-1.66 8 -2.32 8 -3 8 C-3 9.98 -3 11.96 -3 14 C-3.66 14 -4.32 14 -5 14 C-4.9 45.92 -4.79 77.85 -4.67 109.77 C-4.66 113.54 -4.64 117.31 -4.63 121.07 C-4.62 121.82 -4.62 122.57 -4.62 123.35 C-4.58 135.5 -4.53 147.65 -4.5 159.8 C-4.45 172.26 -4.41 184.73 -4.36 197.19 C-4.33 204.88 -4.31 212.58 -4.28 220.27 C-4.27 226.17 -4.24 232.06 -4.22 237.95 C-4.21 240.38 -4.2 242.8 -4.2 245.22 C-4.19 248.52 -4.17 251.81 -4.16 255.11 C-4.16 256.08 -4.16 257.05 -4.16 258.04 C-4.15 258.92 -4.14 259.8 -4.14 260.71 C-4.14 261.47 -4.13 262.23 -4.13 263.02 C-4.09 263.67 -4.04 264.33 -4 265 C-3.5 266.49 -3.5 266.49 -3 268 C-2.96 270 -2.96 272 -3 274 C-3.66 273.34 -4.32 272.68 -5 272 C-5.5 270.51 -5.5 270.51 -6 269 C-6.09 267.54 -6.13 266.08 -6.13 264.62 C-6.14 263.72 -6.14 262.82 -6.14 261.89 C-6.14 260.9 -6.14 259.91 -6.14 258.88 C-6.14 257.83 -6.15 256.78 -6.15 255.7 C-6.16 252.16 -6.16 248.61 -6.16 245.07 C-6.17 242.54 -6.17 240.01 -6.18 237.47 C-6.19 230.58 -6.2 223.69 -6.2 216.8 C-6.2 212.49 -6.21 208.19 -6.21 203.89 C-6.22 191.97 -6.23 180.06 -6.24 168.15 C-6.24 167.38 -6.24 166.62 -6.24 165.84 C-6.24 164.69 -6.24 164.69 -6.24 163.52 C-6.24 161.97 -6.24 160.42 -6.24 158.87 C-6.24 158.11 -6.24 157.34 -6.24 156.55 C-6.24 144.1 -6.26 131.65 -6.29 119.19 C-6.31 106.41 -6.32 93.63 -6.32 80.85 C-6.32 73.68 -6.33 66.5 -6.35 59.32 C-6.36 52.57 -6.37 45.82 -6.36 39.08 C-6.36 36.6 -6.36 34.12 -6.37 31.64 C-6.38 28.26 -6.38 24.88 -6.37 21.5 C-6.38 20.51 -6.38 19.53 -6.39 18.51 C-6.37 15.97 -6.31 13.52 -6 11 C-4.58 7.52 -4.58 7.52 -3 5 C-2.44 4.05 -1.89 3.1 -1.31 2.12 C-0.66 1.07 -0.66 1.07 0 0 Z " fill="#25B26D" transform="translate(110,110)"/>
</svg>
